<?xml version="1.0" encoding="utf-8"?>
<!-- Generator: Adobe Illustrator 27.0.0, SVG Export Plug-In . SVG Version: 6.00 Build 0)  -->
<svg version="1.1" id="Layer_1" xmlns="http://www.w3.org/2000/svg" xmlns:xlink="http://www.w3.org/1999/xlink" x="0px" y="0px"
	 viewBox="0 0 900 900" style="enable-background:new 0 0 900 900;" xml:space="preserve">
<style type="text/css">
	.st0{fill:#F4F2E9;}
	.st1{fill:#2D3343;}
</style>
<g>
	<rect class="st0" width="900" height="900"/>
</g>
<g>
	<g>
		<path class="st1" d="M299.3,449.9L260.9,400v49.9h-27.8V336.8h27.8v49.6l38.1-49.6h32.7l-44.3,55.4l45.9,57.7H299.3z"/>
		<path class="st1" d="M371,443.6c-9-4.9-16.1-11.8-21.3-20.7c-5.3-8.9-7.9-18.8-7.9-29.9s2.6-21,7.9-29.8s12.4-15.7,21.3-20.6
			c9-4.9,18.8-7.4,29.5-7.4s20.6,2.5,29.5,7.4c9,4.9,16,11.8,21.2,20.6c5.2,8.8,7.7,18.7,7.7,29.8c0,11.1-2.6,21-7.8,29.9
			c-5.2,8.9-12.3,15.8-21.2,20.7c-8.9,4.9-18.7,7.4-29.5,7.4C389.8,451,380,448.5,371,443.6z M422.5,416.9c5.5-6,8.2-14,8.2-23.8
			c0-10-2.7-18-8.2-23.9c-5.5-6-12.8-8.9-21.9-8.9c-9.2,0-16.6,3-22.1,8.9s-8.2,13.9-8.2,24c0,10,2.7,18,8.2,23.9
			c5.5,6,12.8,8.9,22.1,8.9C409.7,425.9,417,422.9,422.5,416.9z"/>
		<path class="st1" d="M548.9,336.8v22.1h-46.6v23.8h34.8v21.4h-34.8v45.8h-27.8V336.8H548.9z"/>
		<path class="st1" d="M634.6,429.9H592l-6.8,20H556l41.3-113.1h32.2l41.3,113.1h-29.5L634.6,429.9z M627.5,408.6l-14.2-41.4
			l-14,41.4H627.5z"/>
	</g>
	<g>
		<path class="st1" d="M285.4,504c-1.6-2.9-3.9-5.1-6.9-6.7c-3-1.5-6.5-2.3-10.5-2.3c-7,0-12.6,2.3-16.8,6.8s-6.3,10.6-6.3,18.2
			c0,8.1,2.2,14.4,6.6,18.9c4.4,4.5,10.5,6.8,18.2,6.8c5.3,0,9.8-1.3,13.4-4c3.7-2.7,6.3-6.5,8-11.5h-27.4v-15.7h46.9v19.8
			c-1.6,5.3-4.3,10.3-8.1,14.9c-3.8,4.6-8.7,8.3-14.6,11.1s-12.5,4.2-19.9,4.2c-8.7,0-16.5-1.9-23.4-5.7s-12.2-9.1-16-15.8
			s-5.7-14.4-5.7-23.1s1.9-16.4,5.7-23.2c3.8-6.8,9.1-12.1,16-15.9c6.8-3.8,14.6-5.7,23.3-5.7c10.6,0,19.5,2.5,26.8,7.6
			s12.1,12.1,14.4,21.1h-23.7V504z"/>
		<path class="st1" d="M341.7,559.1c-6.9-3.8-12.4-9.2-16.5-16c-4.1-6.9-6.1-14.6-6.1-23.2c0-8.6,2-16.3,6.1-23.1
			c4.1-6.8,9.6-12.1,16.5-16c6.9-3.8,14.6-5.7,22.9-5.7s16,1.9,22.9,5.7c6.9,3.8,12.4,9.2,16.4,16s6,14.5,6,23.1
			c0,8.6-2,16.3-6.1,23.2c-4,6.9-9.5,12.2-16.4,16s-14.5,5.7-22.8,5.7C356.3,564.8,348.7,562.9,341.7,559.1z M381.6,538.4
			c4.2-4.7,6.4-10.8,6.4-18.5s-2.1-13.9-6.4-18.5c-4.2-4.6-9.9-6.9-17-6.9s-12.8,2.3-17.1,6.9c-4.2,4.6-6.4,10.8-6.4,18.6
			c0,7.7,2.1,13.9,6.4,18.5c4.2,4.6,9.9,6.9,17.1,6.9C371.7,545.4,377.3,543,381.6,538.4z"/>
		<path class="st1" d="M440.9,559.1c-6.9-3.8-12.4-9.2-16.5-16c-4.1-6.9-6.1-14.6-6.1-23.2c0-8.6,2-16.3,6.1-23.1
			c4.1-6.8,9.6-12.1,16.5-16c6.9-3.8,14.6-5.7,22.9-5.7s16,1.9,22.9,5.7c6.9,3.8,12.4,9.2,16.4,16s6,14.5,6,23.1
			c0,8.6-2,16.3-6.1,23.2c-4,6.9-9.5,12.2-16.4,16s-14.5,5.7-22.8,5.7C455.4,564.8,447.8,562.9,440.9,559.1z M480.7,538.4
			c4.2-4.7,6.4-10.8,6.4-18.5s-2.1-13.9-6.4-18.5c-4.2-4.6-9.9-6.9-17-6.9s-12.8,2.3-17.1,6.9c-4.2,4.6-6.4,10.8-6.4,18.6
			c0,7.7,2.1,13.9,6.4,18.5c4.2,4.6,9.9,6.9,17.1,6.9C470.8,545.4,476.5,543,480.7,538.4z"/>
		<path class="st1" d="M578.6,481.8c7,3.7,12.4,8.8,16.2,15.4s5.7,14.3,5.7,22.9c0,8.6-1.9,16.2-5.7,22.8
			c-3.8,6.7-9.2,11.8-16.3,15.5c-7,3.7-15.2,5.5-24.4,5.5H521v-87.6h33.2C563.5,476.3,571.7,478.2,578.6,481.8z M571.8,538.9
			c4.5-4.4,6.8-10.7,6.8-18.7c0-8.1-2.3-14.4-6.8-18.8c-4.5-4.5-10.9-6.7-19-6.7h-10.2v50.9h10.2
			C560.9,545.5,567.3,543.3,571.8,538.9z"/>
		<path class="st1" d="M627.3,561.7c-5.1-2.1-9.2-5.2-12.3-9.2c-3.1-4.1-4.7-9-4.9-14.7h23c0.3,3.2,1.5,5.7,3.4,7.4s4.5,2.6,7.6,2.6
			c3.2,0,5.7-0.7,7.6-2.2c1.8-1.5,2.8-3.5,2.8-6.1c0-2.2-0.7-4-2.2-5.4s-3.3-2.6-5.4-3.5c-2.1-0.9-5.2-2-9.1-3.1
			c-5.7-1.7-10.4-3.5-14-5.2s-6.7-4.3-9.3-7.7c-2.6-3.4-3.9-7.9-3.9-13.4c0-8.2,3-14.5,9-19.2c6-4.6,13.7-6.9,23.3-6.9
			c9.7,0,17.6,2.3,23.6,6.9s9.2,11,9.6,19.3h-23.3c-0.2-2.8-1.2-5.1-3.2-6.7c-1.9-1.6-4.4-2.4-7.4-2.4c-2.6,0-4.7,0.7-6.3,2.1
			s-2.4,3.3-2.4,5.9c0,2.8,1.3,5,4,6.6s6.9,3.3,12.6,5.1c5.7,1.9,10.4,3.7,13.9,5.5c3.6,1.7,6.7,4.3,9.3,7.6s3.9,7.6,3.9,12.9
			c0,5-1.3,9.5-3.8,13.6c-2.6,4.1-6.3,7.3-11.2,9.7s-10.6,3.6-17.3,3.6C638.2,564.8,632.4,563.8,627.3,561.7z"/>
	</g>
</g>
</svg>
